{
   "accessors" : [
      {
         "bufferView" : 2,
         "byteOffset" : 0,
         "componentType" : 5126,
         "count" : 1028,
         "max" : [ 1, 0.6940805315971375, 0.7893137335777283, 1 ],
         "min" : [ 0, 0.006584956776350737, 0, 1 ],
         "name" : "accessor_color_m0-PolyPaper19_-788510",
         "type" : "VEC4"
      },
      {
         "bufferView" : 2,
         "byteOffset" : 16448,
         "componentType" : 5126,
         "count" : 24,
         "max" : [ 1, 1, 1, 1 ],
         "min" : [ 1, 1, 1, 1 ],
         "name" : "accessor_color_m1-PolyGlass24_-788516",
         "type" : "VEC4"
      },
      {
         "bufferView" : 0,
         "byteOffset" : 0,
         "componentType" : 5123,
         "count" : 1572,
         "max" : [ 1027 ],
         "min" : [ 0 ],
         "name" : "accessor_indices_0_m0-PolyPaper19_-788510",
         "type" : "SCALAR"
      },
      {
         "bufferView" : 0,
         "byteOffset" : 3144,
         "componentType" : 5123,
         "count" : 36,
         "max" : [ 23 ],
         "min" : [ 0 ],
         "name" : "accessor_indices_0_m1-PolyGlass24_-788516",
         "type" : "SCALAR"
      },
      {
         "bufferView" : 1,
         "byteOffset" : 12336,
         "componentType" : 5126,
         "count" : 1028,
         "max" : [ 1, 1, 1 ],
         "min" : [ -1, -1, -1 ],
         "name" : "accessor_normal_m0-PolyPaper19_-788510",
         "type" : "VEC3"
      },
      {
         "bufferView" : 1,
         "byteOffset" : 24960,
         "componentType" : 5126,
         "count" : 24,
         "max" : [ 1, 1, 1 ],
         "min" : [ -1, -1, -1 ],
         "name" : "accessor_normal_m1-PolyGlass24_-788516",
         "type" : "VEC3"
      },
      {
         "bufferView" : 1,
         "byteOffset" : 0,
         "componentType" : 5126,
         "count" : 1028,
         "max" : [ 0.249982, 0.07992311000000001, 1.850029 ],
         "min" : [ -0.1000182, -1.040078, 1.270029 ],
         "name" : "accessor_position_m0-PolyPaper19_-788510",
         "type" : "VEC3"
      },
      {
         "bufferView" : 1,
         "byteOffset" : 24672,
         "componentType" : 5126,
         "count" : 24,
         "max" : [ -0.05001818, 0.04992245, 1.530029 ],
         "min" : [ -0.06001827, -0.4500776, 1.290029 ],
         "name" : "accessor_position_m1-PolyGlass24_-788516",
         "type" : "VEC3"
      }
   ],
   "asset" : {
      "copyright" : "Unknown",
      "extras" : {
         "GOOGLE_processor_version" : 294144208
      },
      "generator" : "glTF 1-to-2 Upgrader for Google Blocks",
      "version" : "2.0"
   },
   "bufferViews" : [
      {
         "buffer" : 0,
         "byteLength" : 3216,
         "byteOffset" : 0,
         "name" : "ushortBufferView",
         "target" : 34963
      },
      {
         "buffer" : 0,
         "byteLength" : 25248,
         "byteOffset" : 3216,
         "byteStride" : 12,
         "name" : "vec3BufferView",
         "target" : 34962
      },
      {
         "buffer" : 0,
         "byteLength" : 16832,
         "byteOffset" : 28464,
         "byteStride" : 16,
         "name" : "vec4BufferView",
         "target" : 34962
      }
   ],
   "buffers" : [
      {
         "byteLength" : 45296,
         "name" : "model",
         "uri" : "model.bin"
      }
   ],
   "cameras" : [
      {
         "perspective" : {
            "yfov" : 0.7853981633974483,
            "znear" : 0.1000000014901161
         },
         "type" : "perspective"
      }
   ],
   "extensions" : {
      "KHR_lights_punctual" : {
         "lights" : [
            {
               "color" : [ 1, 0.9333333333333333, 0.8666666666666667 ],
               "intensity" : 0.25,
               "name" : "headLight",
               "type" : "directional"
            },
            {
               "color" : [ 1, 0.9333333333333333, 0.8666666666666667 ],
               "intensity" : 0.324999988079071,
               "name" : "keyLight",
               "type" : "directional"
            }
         ]
      }
   },
   "extensionsUsed" : [ "GOOGLE_backgrounds", "GOOGLE_camera_settings", "KHR_lights_punctual" ],
   "extras" : {
      "GOOGLE_initial_camera_motion" : {
         "motionPath" : "FULL_ROTATION"
      },
      "GOOGLE_lighting_rig" : {
         "disableShadows" : false
      }
   },
   "materials" : [
      {
         "alphaMode" : "OPAQUE",
         "doubleSided" : false,
         "name" : "BlocksPaper",
         "pbrMetallicRoughness" : {
            "baseColorFactor" : [ 1, 1, 1, 1 ],
            "metallicFactor" : 0,
            "roughnessFactor" : 0.6
         }
      },
      {
         "alphaMode" : "BLEND",
         "doubleSided" : false,
         "name" : "BlocksGlass",
         "pbrMetallicRoughness" : {
            "baseColorFactor" : [ 0.2, 0.2, 1, 0.3 ],
            "metallicFactor" : 1,
            "roughnessFactor" : 0.4
         }
      },
      {
         "alphaMode" : "OPAQUE",
         "doubleSided" : true,
         "name" : "BlocksGem",
         "pbrMetallicRoughness" : {
            "baseColorFactor" : [ 1, 0.4, 1, 1 ],
            "metallicFactor" : 0,
            "roughnessFactor" : 0.1
         }
      }
   ],
   "meshes" : [
      {
         "name" : "mesh_m0-PolyPaper19_-788510",
         "primitives" : [
            {
               "attributes" : {
                  "COLOR_0" : 0,
                  "NORMAL" : 4,
                  "POSITION" : 6
               },
               "indices" : 2,
               "material" : 0,
               "mode" : 4
            }
         ]
      },
      {
         "name" : "mesh_m1-PolyGlass24_-788516",
         "primitives" : [
            {
               "attributes" : {
                  "COLOR_0" : 1,
                  "NORMAL" : 5,
                  "POSITION" : 7
               },
               "indices" : 3,
               "material" : 1,
               "mode" : 4
            }
         ]
      }
   ],
   "nodes" : [
      {
         "mesh" : 1,
         "name" : "node_MeshObject-15773696-PolyGlass24"
      },
      {
         "mesh" : 0,
         "name" : "node_MeshObject-587852800-PolyPaper19"
      },
      {
         "children" : [ 3 ]
      },
      {
         "children" : [ 4 ],
         "extras" : {
            "isTransformNode" : 1
         },
         "translation" : [ 0.08114374234267539, -0.488666887444522, 1.563554549079711 ]
      },
      {
         "children" : [ 1, 0 ],
         "translation" : [ -0.08114374234267539, 0.488666887444522, -1.563554549079711 ]
      },
      {
         "camera" : 0,
         "children" : [ 6 ],
         "rotation" : [
            -0.002294366053223705,
            0.8265892375094105,
            -0.003369809710612694,
            -0.5627909138397132
         ],
         "translation" : [ -1.792912378499609, -0.5095024511891592, 0.7768368419563648 ]
      },
      {
         "extensions" : {
            "KHR_lights_punctual" : {
               "light" : 0
            }
         },
         "extras" : {
            "isHeadLight" : 1
         },
         "name" : "headLightNode",
         "translation" : [ -0.8242144413261341, 0.412107220663067, 0.412107220663067 ]
      },
      {
         "extensions" : {
            "KHR_lights_punctual" : {
               "light" : 1
            }
         },
         "extras" : {
            "isKeyLight" : 1
         },
         "name" : "keyLightNode",
         "rotation" : [ -0.7505326882858236, -0.3752663441429118, 0, 0.5439447166468927 ],
         "scale" : [ 0, 0, 0.8324565857393954 ],
         "translation" : [ -0.8403004979600527, 1.254722199244828, 0.7509385289036435 ]
      }
   ],
   "scene" : 0,
   "scenes" : [
      {
         "extensions" : {
            "GOOGLE_backgrounds" : {
               "color" : [ 0.4745098039215686, 0.3333333333333333, 0.2823529411764706 ]
            },
            "GOOGLE_camera_settings" : {
               "pivot" : [ 0, 0, 0 ]
            }
         },
         "extras" : {
            "GOOGLE_camera_index" : {
               "cameraIndex" : 0,
               "nodeIndex" : 5
            },
            "GOOGLE_geometry_data" : {
               "stats" : {
                  "centroid" : [ -0.007843912220657258, -0.4101909722339631, 1.583395114643039 ],
                  "radius" : 0.8242144413261341,
                  "stdev" : 0.3597734837448979
               },
               "visualCenterPoint" : [ 0.08114374234267539, -0.488666887444522, 1.563554549079711 ]
            },
            "GOOGLE_hemi_light" : {
               "groundColor" : [ 0.4745098039215686, 0.3333333333333333, 0.2823529411764706 ]
            }
         },
         "name" : "defaultScene",
         "nodes" : [ 2, 5, 7 ]
      }
   ]
}
